<svg xmlns="http://www.w3.org/2000/svg" xmlns:xlink="http://www.w3.org/1999/xlink" width="63.369" height="70.52" viewBox="0 0 63.369 70.52">
  <defs>
    <filter id="Rectangle_109" x="21.008" y="0" width="22" height="27" filterUnits="userSpaceOnUse">
      <feOffset dx="3" dy="3"/>
      <feGaussianBlur stdDeviation="3" result="blur"/>
      <feFlood/>
      <feComposite operator="in" in2="blur"/>
      <feComposite in="SourceGraphic"/>
    </filter>
    <filter id="champagne-glasses-solid" x="0" y="18.406" width="63.369" height="52.114" filterUnits="userSpaceOnUse">
      <feOffset dx="3" dy="3"/>
      <feGaussianBlur stdDeviation="3" result="blur-2"/>
      <feFlood/>
      <feComposite operator="in" in2="blur-2"/>
      <feComposite in="SourceGraphic"/>
    </filter>
    <filter id="Rectangle_110" x="28.772" y="6.704" width="27.466" height="26.849" filterUnits="userSpaceOnUse">
      <feOffset dx="3" dy="3"/>
      <feGaussianBlur stdDeviation="3" result="blur-3"/>
      <feFlood/>
      <feComposite operator="in" in2="blur-3"/>
      <feComposite in="SourceGraphic"/>
    </filter>
    <filter id="Rectangle_113" x="7.779" y="6.704" width="27.466" height="26.849" filterUnits="userSpaceOnUse">
      <feOffset dx="3" dy="3"/>
      <feGaussianBlur stdDeviation="3" result="blur-4"/>
      <feFlood/>
      <feComposite operator="in" in2="blur-4"/>
      <feComposite in="SourceGraphic"/>
    </filter>
  </defs>
  <g id="Groupe_1328" transform="translate(-5387.997 -8025.353)">
    <g transform="matrix(1, 0, 0, 1, 5388, 8025.35)" filter="url(#Rectangle_109)">
      <g id="Rectangle_109-2" transform="translate(27.01 6)" fill="#fff" stroke="rgba(249,149,37,0.68)" stroke-width="1">
        <rect width="4" height="9" stroke="none"/>
        <rect x="0.5" y="0.5" width="3" height="8" fill="none"/>
      </g>
    </g>
    <g transform="matrix(1, 0, 0, 1, 5388, 8025.35)" filter="url(#champagne-glasses-solid)">
      <path id="champagne-glasses-solid-2" d="M43.32,27.1a2.6,2.6,0,0,0-1.461-1.353,2.906,2.906,0,0,0-2.07,0l-1.5.578L35.666,20.01A6.954,6.954,0,0,0,38,10.465L32.135,1.055A2.182,2.182,0,0,0,29.485.2L21.749,3.165,13.945.148A2.264,2.264,0,0,0,11.235,1L5.367,10.407A6.975,6.975,0,0,0,7.7,19.953L5.076,26.325l-1.495-.577a2.909,2.909,0,0,0-2.069,0A2.6,2.6,0,0,0,.05,27.1a.461.461,0,0,0-.005.384.518.518,0,0,0,.293.273l11,4.21a.569.569,0,0,0,.7-.266,2.45,2.45,0,0,0-1.465-3.274l-1.5-.571,2.667-6.477q.442.062.889.08a7.742,7.742,0,0,0,7.682-5.33l1.372-4.711L23.06,16.13c.888,3.266,4.174,5.329,7.682,5.329q.446-.018.889-.08l2.659,6.477-1.5.571a2.6,2.6,0,0,0-1.473,1.355,2.313,2.313,0,0,0,.009,1.919.522.522,0,0,0,.3.27.583.583,0,0,0,.416,0l11-4.21A.493.493,0,0,0,43.32,27.1ZM18.694,10.131,11.1,7.224l2.471-3.961,6.4,2.449Zm5.975,0L23.392,5.709l6.4-2.445,2.471,3.961Z" transform="translate(7 25.48)" fill="#fff" stroke="rgba(249,149,37,0.68)" stroke-width="2"/>
    </g>
    <path id="Tracé_3229" d="M0,0H10.784s.585,7.564-2.864,9.374a6.65,6.65,0,0,1-2.712.92c-.06.014-.531.036-.531.036a3.887,3.887,0,0,1-1.952-.687C-.178,8,0,0,0,0Z" transform="translate(5404.587 8058.105) rotate(22.5)" fill="rgba(249,149,37,0.5)"/>
    <path id="Tracé_3230" d="M0,0H10.222s.555,7.639-2.714,9.467a6.048,6.048,0,0,1-2.57.929c-.057.015-.5.037-.5.037a3.523,3.523,0,0,1-1.85-.694C-.168,8.08,0,0,0,0Z" transform="translate(5418.93 8061.635) rotate(-22.5)" fill="rgba(249,149,37,0.5)"/>
    <g transform="matrix(1, 0, 0, 1, 5388, 8025.35)" filter="url(#Rectangle_110)">
      <g id="Rectangle_110-2" transform="translate(41.67 12.7) rotate(50)" fill="#fff" stroke="rgba(249,149,37,0.68)" stroke-width="1">
        <rect width="4" height="9" stroke="none"/>
        <rect x="0.5" y="0.5" width="3" height="8" fill="none"/>
      </g>
    </g>
    <g transform="matrix(1, 0, 0, 1, 5388, 8025.35)" filter="url(#Rectangle_113)">
      <g id="Rectangle_113-2" transform="translate(13.78 15.77) rotate(-50)" fill="#fff" stroke="rgba(249,149,37,0.68)" stroke-width="1">
        <rect width="4" height="9" stroke="none"/>
        <rect x="0.5" y="0.5" width="3" height="8" fill="none"/>
      </g>
    </g>
  </g>
</svg>
