<svg xmlns="http://www.w3.org/2000/svg" xmlns:xlink="http://www.w3.org/1999/xlink" width="124.053" height="111.512" viewBox="0 0 124.053 111.512">
  <defs>
    <filter id="masks-theater-solid" x="0" y="0" width="124.053" height="111.512" filterUnits="userSpaceOnUse">
      <feOffset dx="3" dy="3"/>
      <feGaussianBlur stdDeviation="3" result="blur"/>
      <feFlood/>
      <feComposite operator="in" in2="blur"/>
      <feComposite in="SourceGraphic"/>
    </filter>
  </defs>
  <g transform="matrix(1, 0, 0, 1, 0, 0)" filter="url(#masks-theater-solid)">
    <path id="masks-theater-solid-2" d="M33.6,43.753A13.233,13.233,0,0,0,24.245,57a18.769,18.769,0,0,1,8.12-5.518ZM15.554,52.645,10.411,20.61a.7.7,0,0,1,.042-.464A58.836,58.836,0,0,1,41.146,11.4c.264,0,.506.013.769.013A14.744,14.744,0,0,1,50.3,6.768a72.118,72.118,0,0,1,9.3-.937A10.365,10.365,0,0,0,52.8,1.006,66.324,66.324,0,0,0,41.145-.017,68.378,68.378,0,0,0,5.4,10.173C1.465,12.587-.626,17.575.166,22.592L5.322,54.628C7.636,69,27.456,79.984,38.531,79.984a12.489,12.489,0,0,0,1.629-.12,54.617,54.617,0,0,1-6.415-12.077C26,65.485,16.515,58.556,15.554,52.645ZM31.407,28.128a7.946,7.946,0,0,0-.666-2.036,10.039,10.039,0,0,1-5.724,3.28,9.443,9.443,0,0,1-6.415-.937,7.739,7.739,0,0,0,.02,2.164c.609,3.884,3.979,6.471,7.511,5.78C29.653,35.717,32.04,32,31.407,28.128ZM98.54,21.592a67.95,67.95,0,0,0-47.4-9.175c-4.45.621-7.974,4.684-8.785,9.55L37.188,54.181C34.692,69.74,52.669,89.234,62.895,91.2c10.085,1.987,33.209-9.586,35.71-25.142L103.761,34C104.565,28.967,102.47,23.985,98.54,21.592ZM54.158,38.878c.629-3.884,4-6.473,7.53-5.78,3.532.67,5.887,4.373,5.278,8.236a7.764,7.764,0,0,1-.67,2.054,9.918,9.918,0,0,0-5.724-3.28,9.423,9.423,0,0,0-6.415.915A4.788,4.788,0,0,1,54.158,38.878Zm11.3,35.482C56.428,72.6,50.279,63.783,51.009,54.342c3.349,4.577,9.135,8.257,16.156,9.619s13.6.068,18.172-2.968C83.178,70.109,74.652,76.109,65.461,74.359ZM86.783,47.342a10.1,10.1,0,0,0-5.744-3.28A9.463,9.463,0,0,0,74.624,45a7.738,7.738,0,0,1,.02-2.164c.629-3.884,4-6.473,7.53-5.78s5.887,4.373,5.257,8.257A8.885,8.885,0,0,1,86.783,47.342Z" transform="translate(7.06 7.02)" fill="#fff" stroke="rgba(249,149,37,0.68)" stroke-width="2"/>
  </g>
</svg>
