<svg width="130" height="117" viewBox="0 0 130 117" fill="none" xmlns="http://www.w3.org/2000/svg">
<g clip-path="url(#clip0_1_3)">
<path d="M76.4822 76.5429L82.307 57.9332L93.7977 67.575L76.4822 76.5429Z" fill="white"/>
<path d="M115.067 19.5019L71.7266 11.8459C69.5506 11.4615 67.475 12.9139 67.0906 15.0899L59.7826 56.4599C59.3982 58.6359 60.8506 60.7115 63.0266 61.0959L106.367 68.7519C108.543 69.1363 110.618 67.6839 111.003 65.5079L118.311 24.1379C118.695 21.9619 117.243 19.8863 115.067 19.5019Z" fill="white"/>
<g filter="url(#filter0_d_1_3)">
<path d="M27.1635 80.9486C27.3237 81.8868 27.3092 82.8466 27.1205 83.7796C26.3595 87.5526 23.0565 89.8506 19.6575 88.8016C18.4916 88.4264 17.4488 87.743 16.6395 86.8236C17.1796 89.0574 18.0603 91.1947 19.2505 93.1606C21.2851 96.9265 24.4299 99.9746 28.2575 101.891C30.7311 103.079 33.479 103.58 36.2128 103.34C38.9466 103.101 41.5655 102.129 43.7945 100.529C46.9171 98.2461 49.2893 95.0855 50.6085 91.4496C51.5373 88.8435 52.0984 86.1206 52.2755 83.3596C52.5334 80.2199 52.4382 77.0611 51.9915 73.9426C51.8441 72.6632 51.3573 71.4465 50.5815 70.4186C49.9477 69.6396 49.0408 69.1315 48.0455 68.9976C44.1905 68.4226 40.1215 68.9976 36.2295 68.6896C34.5355 68.5536 33.2915 68.4586 33.0935 70.4076C33.0207 71.0572 33.0443 71.7139 33.1635 72.3566C33.3975 73.5827 34.0657 74.6833 35.0455 75.4566C36.1011 76.276 37.3632 76.7865 38.6915 76.9316C39.5997 77.0449 40.5204 77.003 41.4145 76.8076C41.6164 76.7551 41.8267 76.7437 42.033 76.7742C42.2393 76.8048 42.4374 76.8765 42.6153 76.9852C42.7933 77.094 42.9476 77.2374 43.0689 77.4071C43.1902 77.5767 43.2761 77.769 43.3215 77.9726C44.4215 82.0476 36.2015 78.6536 36.0085 86.2406C36.0035 86.4596 35.9975 86.6786 35.9925 86.8206C35.9973 87.036 35.9594 87.2502 35.8811 87.451C35.8027 87.6517 35.6854 87.8349 35.536 87.9902C35.3865 88.1454 35.2078 88.2695 35.0102 88.3554C34.8126 88.4413 34.6 88.4872 34.3845 88.4906C33.9493 88.4531 33.5464 88.2455 33.2634 87.9128C32.9803 87.5801 32.8398 87.1492 32.8725 86.7136C32.8775 86.4586 32.8835 86.2986 32.8885 86.1506C32.9745 82.8166 33.0175 81.0506 35.2425 79.4876C34.5152 79.1554 33.8311 78.7356 33.2055 78.2376C32.954 78.0359 32.7174 77.8164 32.4975 77.5806C32.0729 78.451 31.4548 79.2127 30.6905 79.8076C30.6205 79.8606 30.5565 79.9076 30.4905 79.9556C29.5257 80.6505 28.3543 80.9991 27.1665 80.9446L27.1635 80.9486ZM13.2135 81.4046L11.1275 77.9336C10.4109 76.8133 10.0208 75.5154 10.0008 74.1857C9.98085 72.8559 10.3319 71.5469 11.0145 70.4056C11.4761 69.6308 12.0881 68.9562 12.8145 68.4216C13.5175 67.896 14.3289 67.5339 15.1895 67.3616C15.5496 67.2897 15.9163 67.2562 16.2835 67.2616C16.2035 66.5451 16.2288 65.8208 16.3585 65.1116C16.6306 63.4614 17.5032 61.9701 18.8085 60.9246C18.8725 60.8716 18.9425 60.8246 19.0085 60.7766C19.6624 60.3078 20.4144 59.9938 21.2075 59.8583C22.0006 59.7229 22.8141 59.7695 23.5865 59.9946C23.9197 60.089 24.2442 60.2118 24.5565 60.3616C24.3233 59.1882 24.3434 57.9786 24.6155 56.8136C24.8051 55.9222 25.1712 55.0778 25.6923 54.3302C26.2133 53.5826 26.8788 52.9469 27.6495 52.4606C28.3899 52.0081 29.2235 51.7297 30.0873 51.6466C30.951 51.5634 31.8224 51.6776 32.6355 51.9806C34.3524 52.6376 35.7494 53.9319 36.5355 55.5936C38.3585 59.2776 38.5515 59.7686 38.7445 60.2666C38.8895 60.6336 39.0285 61.0006 40.1005 63.1866L40.1215 41.5506C40.1025 39.642 40.7616 37.7886 41.9815 36.3206C42.528 35.6267 43.2249 35.0659 44.0196 34.6805C44.8144 34.2951 45.6862 34.0951 46.5695 34.0957C47.4527 34.0963 48.3243 34.2974 49.1186 34.6838C49.9128 35.0703 50.609 35.632 51.1545 36.3266C52.3715 37.7979 53.027 39.6533 53.0045 41.5626V41.5626L52.9835 66.8106H53.0025C53.0032 67.1889 52.8892 67.5585 52.6755 67.8706C52.7505 67.9536 52.8205 68.0366 52.8895 68.1196C54.0836 69.6483 54.8414 71.4719 55.0825 73.3966C55.5722 76.8014 55.6748 80.2507 55.3885 83.6786C55.18 86.7941 54.5405 89.8657 53.4885 92.8056C51.9302 97.0693 49.1376 100.772 45.4665 103.443C42.8238 105.347 39.7166 106.503 36.4719 106.79C33.2273 107.077 29.9653 106.484 27.0295 105.073C22.6088 102.871 18.9734 99.3611 16.6175 95.0206C14.0175 90.5206 13.5775 88.0206 12.7175 83.1396L12.7015 83.0396C12.6491 82.7457 12.6685 82.4436 12.7582 82.1588C12.8479 81.8741 13.0051 81.6154 13.2165 81.4046H13.2135ZM22.8955 78.8576C22.563 78.5008 22.2641 78.1142 22.0025 77.7026L17.8615 71.1526C17.5593 70.9173 17.2106 70.7486 16.8385 70.6578C16.4664 70.567 16.0792 70.556 15.7025 70.6256C15.254 70.7182 14.8313 70.9084 14.4645 71.1826C13.7108 71.7344 13.2011 72.5576 13.043 73.4783C12.885 74.3989 13.091 75.345 13.6175 76.1166L18.2285 83.7866C18.7197 84.6503 19.509 85.3052 20.4485 85.6286C20.865 85.7429 21.3014 85.7654 21.7274 85.6944C22.1534 85.6235 22.559 85.4609 22.916 85.2178C23.273 84.9747 23.5729 84.657 23.7951 84.2866C24.0172 83.9162 24.1562 83.502 24.2025 83.0726C24.3885 82.16 24.2502 81.2111 23.8115 80.3896C23.7735 80.3246 23.7525 80.2826 23.7365 80.2596L22.9005 78.8596L22.8955 78.8576ZM21.6245 70.7576L25.1955 76.6976C25.6085 77.0875 26.1082 77.3737 26.6535 77.5326C27.0289 77.6458 27.425 77.6727 27.8122 77.6113C28.1994 77.5498 28.5677 77.4015 28.8895 77.1776L28.9895 77.1066C29.6431 76.5737 30.078 75.8192 30.2115 74.9866C30.3778 74.1028 30.2277 73.1888 29.7875 72.4046C29.7605 72.3636 29.7395 72.3216 29.7125 72.2806L25.0535 64.9126C24.5595 64.0877 23.7787 63.4739 22.8605 63.1886C22.4852 63.0748 22.089 63.0476 21.7017 63.1091C21.3144 63.1706 20.9461 63.3191 20.6245 63.5436C20.5925 63.5676 20.5605 63.5906 20.5245 63.6146C19.8713 64.1495 19.4366 64.905 19.3025 65.7386C19.1363 66.6223 19.2864 67.5364 19.7265 68.3206C19.7535 68.3616 19.7745 68.4036 19.8015 68.4446L20.0015 68.7586C20.6431 69.3388 21.1927 70.0132 21.6315 70.7586L21.6245 70.7576ZM31.6775 55.2496C31.2675 55.0926 30.8272 55.0307 30.3898 55.0687C29.9524 55.1066 29.5294 55.2433 29.1525 55.4686C28.7677 55.7146 28.436 56.0352 28.1772 56.4115C27.9184 56.7878 27.7376 57.2122 27.6455 57.6596C27.4103 58.7077 27.5328 59.8043 27.9935 60.7746L30.7815 66.6746C31.302 65.8925 31.9793 65.2271 32.7705 64.7206C33.9707 63.9834 35.3453 63.5785 36.7535 63.5476C36.1365 62.2626 36.0085 61.9306 35.8795 61.5986C35.7075 61.1606 35.5415 60.7276 33.8045 57.2216C33.3792 56.3108 32.6159 55.6014 31.6765 55.2436L31.6775 55.2496ZM44.2655 38.6726C43.599 39.4785 43.2382 40.4938 43.2465 41.5396V41.5396L43.2255 65.0646L49.8735 65.0726L49.8945 41.5476C49.9071 40.5005 49.5502 39.4826 48.8865 38.6726C48.6145 38.3183 48.2646 38.0313 47.864 37.8338C47.4634 37.6363 47.0227 37.5336 46.576 37.5336C46.1294 37.5336 45.6887 37.6363 45.288 37.8338C44.8874 38.0313 44.5375 38.3183 44.2655 38.6726V38.6726Z" fill="white" stroke="#F99525" stroke-opacity="0.68"/>
</g>
<g filter="url(#filter1_d_1_3)">
<path fill-rule="evenodd" clip-rule="evenodd" d="M98.2614 16.6257L76.6424 13.5017C75.3125 13.2929 73.9531 13.3758 72.6584 13.7447C71.3661 14.1407 70.1671 14.7937 69.1334 15.6647C68.0602 16.5515 67.1659 17.6349 66.4984 18.8567C65.8325 20.1434 65.4078 21.5411 65.2454 22.9807L62.4454 45.9807C62.2594 47.5227 60.7204 52.4987 61.0554 53.8367C61.404 55.2156 62.0059 56.5178 62.8304 57.6767C63.6163 58.8179 64.6202 59.7923 65.7844 60.5437C66.9285 61.2543 68.2098 61.7151 69.5444 61.8957L78.8274 63.2347C79.3731 63.3438 79.8558 63.6592 80.1748 64.1152C80.4939 64.5712 80.6249 65.1326 80.5404 65.6827C80.5041 65.9292 80.4369 66.17 80.3404 66.3997C79.8194 67.7657 79.2604 69.1307 78.6524 70.4297C78.0194 71.8087 77.3614 73.1067 76.6524 74.3507C76.2924 74.9867 75.8954 75.5947 75.4614 76.2167C77.4388 75.5852 79.3581 74.7849 81.1984 73.8247C85.0096 71.8384 88.4249 69.1711 91.2754 65.9547C91.4825 65.7184 91.7454 65.5376 92.0403 65.429C92.3351 65.3203 92.6525 65.2872 92.9634 65.3327L100.943 66.4817C102.265 66.6901 103.616 66.6071 104.902 66.2387C106.2 65.8378 107.406 65.1854 108.451 64.3187C109.523 63.4318 110.416 62.3488 111.082 61.1277C111.748 59.8411 112.173 58.4433 112.335 57.0037L116.741 30.4867C116.933 29.0382 116.858 27.5669 116.518 26.1457C116.172 24.7684 115.575 23.4666 114.756 22.3057C113.974 21.1661 112.975 20.1919 111.815 19.4387C110.661 18.7291 109.372 18.2641 108.03 18.0727L98.2384 16.6527L98.2634 16.6257H98.2614ZM86.9684 10.6097L108.587 13.7197C110.44 13.9866 112.218 14.6298 113.812 15.6097C115.444 16.6485 116.846 18.0097 117.932 19.6097C119.084 21.2339 119.922 23.0593 120.402 24.9917C120.867 26.9565 120.976 28.9884 120.725 30.9917L116.307 57.5087C116.08 59.4963 115.491 61.4255 114.57 63.2017C113.658 64.9283 112.409 66.4547 110.896 67.6907C109.447 68.9098 107.768 69.825 105.957 70.3817C104.167 70.8942 102.288 71.0143 100.447 70.7337L93.4474 69.7197C92.0409 71.2166 90.5269 72.6086 88.9174 73.8847C87.0575 75.3462 85.0629 76.6277 82.9604 77.7117C80.8393 78.8259 78.6211 79.7447 76.3334 80.4567C73.9614 81.188 71.5332 81.7232 69.0734 82.0567C68.7002 82.1035 68.3215 82.04 67.9839 81.8743C67.6463 81.7085 67.3646 81.4476 67.1734 81.1237C66.8741 80.6416 66.7632 80.066 66.8617 79.5072C66.9602 78.9483 67.2613 78.4454 67.7074 78.0947C68.9038 77.2357 70.0095 76.257 71.0074 75.1737C71.8771 74.227 72.6351 73.1835 73.2664 72.0637V72.0397C73.9244 70.8767 74.5444 69.6737 75.1034 68.4567C75.2894 68.0237 75.4884 67.5777 75.6864 67.1317L69.0094 66.1717C67.1528 65.9114 65.3722 65.2615 63.7844 64.2647C62.1503 63.2293 60.7477 61.8675 59.6644 60.2647C58.5136 58.6393 57.6772 56.8129 57.1984 54.8797C56.7394 52.9597 58.2534 47.4287 58.4894 45.3737L61.3064 22.3737C61.541 20.3877 62.1282 18.4594 63.0404 16.6797C63.9495 14.9507 65.1993 13.4237 66.7144 12.1907C68.1569 10.9618 69.8387 10.0455 71.6534 9.4997C73.4399 8.98723 75.3162 8.86715 77.1534 9.1477L86.9334 10.5677L86.9704 10.6087L86.9684 10.6097Z" fill="white" stroke="#F99525" stroke-opacity="0.68"/>
</g>
<g filter="url(#filter2_d_1_3)">
<path d="M71.4606 32.782C71.6586 35.176 71.6946 37.588 71.6946 39.982C71.6946 42.322 71.6226 44.662 71.4606 47.002C71.5686 46.93 72.5946 46.948 72.7026 46.948C73.9806 46.948 75.2406 47.002 76.5006 47.002C79.1646 47.002 81.3606 44.95 81.3606 42.25C81.3606 40.558 79.8486 39.136 78.1746 39.136C80.0106 39.082 80.4606 36.976 80.4606 35.5C80.4606 35.392 80.4606 35.284 80.4606 35.176C80.3166 33.394 78.8946 32.782 77.2746 32.782H71.4606ZM74.7546 38.542C74.8086 38.038 74.8266 37.498 74.8266 36.994C74.8266 36.166 74.7726 35.338 74.6286 34.528C75.6906 34.546 77.7606 34.654 77.7606 36.13C77.7606 37.822 76.5546 38.578 74.9886 38.542H74.7546ZM74.7546 44.428V40.216C76.0866 40.234 78.2286 40.342 78.2286 42.142C78.2286 44.14 76.8606 44.446 75.1866 44.428H74.7546Z" fill="white"/>
<path d="M85.7228 32.278L83.0768 31.558L82.7708 46.948L85.4708 47.668L85.7228 32.278Z" fill="white"/>
<path d="M95.7354 38.164L93.1794 37.858L93.2514 38.974C92.6394 38.254 91.7214 37.876 90.7854 37.876C88.2474 37.876 86.7714 40.198 86.7714 42.538C86.7714 44.914 88.2294 47.29 90.8214 47.29C91.7214 47.29 92.6574 46.912 93.2154 46.174H93.2514V47.056L95.8074 47.308C95.5734 46.048 95.5914 44.68 95.5914 43.402C95.5914 41.656 95.6454 39.91 95.7354 38.164ZM91.3974 45.058C90.1014 45.058 89.3094 43.762 89.3094 42.574C89.3094 41.386 90.1014 40.108 91.3974 40.108C92.6934 40.108 93.5034 41.368 93.5034 42.574C93.5034 43.762 92.7114 45.058 91.3974 45.058Z" fill="white"/>
<path d="M106.347 44.158C105.573 44.158 104.637 44.428 104.637 45.364C104.637 46.156 105.087 47.254 106.023 47.254C106.923 47.254 107.571 46.498 107.571 45.634C107.571 44.806 107.265 44.158 106.347 44.158ZM104.961 43.096L107.193 43.474L108.057 33.484L104.691 32.836L104.961 43.096Z" fill="white"/>
<path d="M71.4606 32.782C71.6586 35.176 71.6946 37.588 71.6946 39.982C71.6946 42.322 71.6226 44.662 71.4606 47.002C71.5686 46.93 72.5946 46.948 72.7026 46.948C73.9806 46.948 75.2406 47.002 76.5006 47.002C79.1646 47.002 81.3606 44.95 81.3606 42.25C81.3606 40.558 79.8486 39.136 78.1746 39.136C80.0106 39.082 80.4606 36.976 80.4606 35.5C80.4606 35.392 80.4606 35.284 80.4606 35.176C80.3166 33.394 78.8946 32.782 77.2746 32.782H71.4606ZM74.7546 38.542C74.8086 38.038 74.8266 37.498 74.8266 36.994C74.8266 36.166 74.7726 35.338 74.6286 34.528C75.6906 34.546 77.7606 34.654 77.7606 36.13C77.7606 37.822 76.5546 38.578 74.9886 38.542H74.7546ZM74.7546 44.428V40.216C76.0866 40.234 78.2286 40.342 78.2286 42.142C78.2286 44.14 76.8606 44.446 75.1866 44.428H74.7546Z" stroke="black" stroke-opacity="0.6"/>
<path d="M85.7228 32.278L83.0768 31.558L82.7708 46.948L85.4708 47.668L85.7228 32.278Z" stroke="black" stroke-opacity="0.6"/>
<path d="M95.7354 38.164L93.1794 37.858L93.2514 38.974C92.6394 38.254 91.7214 37.876 90.7854 37.876C88.2474 37.876 86.7714 40.198 86.7714 42.538C86.7714 44.914 88.2294 47.29 90.8214 47.29C91.7214 47.29 92.6574 46.912 93.2154 46.174H93.2514V47.056L95.8074 47.308C95.5734 46.048 95.5914 44.68 95.5914 43.402C95.5914 41.656 95.6454 39.91 95.7354 38.164ZM91.3974 45.058C90.1014 45.058 89.3094 43.762 89.3094 42.574C89.3094 41.386 90.1014 40.108 91.3974 40.108C92.6934 40.108 93.5034 41.368 93.5034 42.574C93.5034 43.762 92.7114 45.058 91.3974 45.058Z" stroke="black" stroke-opacity="0.6"/>
<path d="M106.347 44.158C105.573 44.158 104.637 44.428 104.637 45.364C104.637 46.156 105.087 47.254 106.023 47.254C106.923 47.254 107.571 46.498 107.571 45.634C107.571 44.806 107.265 44.158 106.347 44.158ZM104.961 43.096L107.193 43.474L108.057 33.484L104.691 32.836L104.961 43.096Z" stroke="black" stroke-opacity="0.6"/>
</g>
</g>
<defs>
<filter id="filter0_d_1_3" x="6.5" y="30.5957" width="58.5467" height="85.7649" filterUnits="userSpaceOnUse" color-interpolation-filters="sRGB">
<feFlood flood-opacity="0" result="BackgroundImageFix"/>
<feColorMatrix in="SourceAlpha" type="matrix" values="0 0 0 0 0 0 0 0 0 0 0 0 0 0 0 0 0 0 127 0" result="hardAlpha"/>
<feOffset dx="3" dy="3"/>
<feGaussianBlur stdDeviation="3"/>
<feColorMatrix type="matrix" values="0 0 0 0 0 0 0 0 0 0 0 0 0 0 0 0 0 0 0.25 0"/>
<feBlend mode="normal" in2="BackgroundImageFix" result="effect1_dropShadow_1_3"/>
<feBlend mode="normal" in="SourceGraphic" in2="effect1_dropShadow_1_3" result="shape"/>
</filter>
<filter id="filter1_d_1_3" x="53.6123" y="5.5" width="76.7442" height="86.0717" filterUnits="userSpaceOnUse" color-interpolation-filters="sRGB">
<feFlood flood-opacity="0" result="BackgroundImageFix"/>
<feColorMatrix in="SourceAlpha" type="matrix" values="0 0 0 0 0 0 0 0 0 0 0 0 0 0 0 0 0 0 127 0" result="hardAlpha"/>
<feOffset dx="3" dy="3"/>
<feGaussianBlur stdDeviation="3"/>
<feColorMatrix type="matrix" values="0 0 0 0 0 0 0 0 0 0 0 0 0 0 0 0 0 0 0.25 0"/>
<feBlend mode="normal" in2="BackgroundImageFix" result="effect1_dropShadow_1_3"/>
<feBlend mode="normal" in="SourceGraphic" in2="effect1_dropShadow_1_3" result="shape"/>
</filter>
<filter id="filter2_d_1_3" x="70.8915" y="30.9072" width="39.7027" height="19.4087" filterUnits="userSpaceOnUse" color-interpolation-filters="sRGB">
<feFlood flood-opacity="0" result="BackgroundImageFix"/>
<feColorMatrix in="SourceAlpha" type="matrix" values="0 0 0 0 0 0 0 0 0 0 0 0 0 0 0 0 0 0 127 0" result="hardAlpha"/>
<feOffset dx="1" dy="1"/>
<feGaussianBlur stdDeviation="0.5"/>
<feColorMatrix type="matrix" values="0 0 0 0 0 0 0 0 0 0 0 0 0 0 0 0 0 0 0.25 0"/>
<feBlend mode="normal" in2="BackgroundImageFix" result="effect1_dropShadow_1_3"/>
<feBlend mode="normal" in="SourceGraphic" in2="effect1_dropShadow_1_3" result="shape"/>
</filter>
<clipPath id="clip0_1_3">
<rect width="129.919" height="116.866" fill="white"/>
</clipPath>
</defs>
</svg>
