<svg xmlns="http://www.w3.org/2000/svg" xmlns:xlink="http://www.w3.org/1999/xlink" width="107.848" height="97.297" viewBox="0 0 107.848 97.297">
  <defs>
    <filter id="man-with-megaphone" x="0" y="0" width="107.848" height="97.297" filterUnits="userSpaceOnUse">
      <feOffset dx="3" dy="3"/>
      <feGaussianBlur stdDeviation="3" result="blur"/>
      <feFlood/>
      <feComposite operator="in" in2="blur"/>
      <feComposite in="SourceGraphic"/>
    </filter>
  </defs>
  <g transform="matrix(1, 0, 0, 1, 0, 0)" filter="url(#man-with-megaphone)">
    <path id="man-with-megaphone-2" d="M20.857,5.133c8.477,0,15.349,7.18,15.348,16.036S29.332,37.2,20.854,37.2,5.5,30.015,5.509,21.159,12.382,5.129,20.857,5.133ZM0,77.284,1.065,51.7c.414-7.509,9.367-12.376,16.555-11.943l6.431.388c6.431.4,13.9,5.121,22.65,8.009l-2.687-8.957a4.335,4.335,0,0,1-.836-.231,6.3,6.3,0,0,1-2.729-2.239h0a10.832,10.832,0,0,1-1.736-4.158,11.318,11.318,0,0,1-.164-1.493,6.751,6.751,0,0,1,.629-3.337,4,4,0,0,1,2.008-1.926c0-.052.057-.1.086-.149a1.467,1.467,0,0,1,.179-.194h0a.9.9,0,0,1,.136-.112,7.328,7.328,0,0,1,7.067-4.18,49.468,49.468,0,0,0,5.33-4.732A32.956,32.956,0,0,0,58.8,9.917V9.88a15.131,15.131,0,0,1,1.508-2.239A1.636,1.636,0,0,1,62,6.984a3.615,3.615,0,0,1,1.429.537A8.008,8.008,0,0,1,64.9,8.731a23.239,23.239,0,0,1,3.351,4.7,48.116,48.116,0,0,1,3.08,6.606,44.65,44.65,0,0,1,2.094,7.129,18.18,18.18,0,0,1,.364,5.568A7.009,7.009,0,0,1,73.36,34.5a4.206,4.206,0,0,1-.807,1.314.336.336,0,0,0-.05.052l-.071.052a2.77,2.77,0,0,1-.657.366,2.4,2.4,0,0,1-.672.142h-.236a1.408,1.408,0,0,0-.186,0h0a.589.589,0,0,1-.229,0,.614.614,0,0,1-.221-.06l-.307-.052c-.715-.134-1.429-.328-2.229-.53h-.05a24.249,24.249,0,0,0-10.425-.843l4.944,16.616C67.258,71.529,50.638,65.64,39.727,62L36,61.258l-.715,16ZM74.967,12.411a.948.948,0,0,1-1.336-.336,1.042,1.042,0,0,1,.322-1.4L79.969,6.82a.95.95,0,0,1,1.336.343,1.043,1.043,0,0,1-.329,1.4ZM71.173,7A.946.946,0,0,1,69.8,6.905a1.05,1.05,0,0,1,.089-1.437L75.6.243a.95.95,0,0,1,1.379.09,1.044,1.044,0,0,1,.238.737,1.032,1.032,0,0,1-.331.7L71.173,6.991Zm8.91,24.633a.99.99,0,0,1-.981-.948,1,1,0,0,1,.853-1.075l6.809-.485a.989.989,0,0,1,1.036.948,1,1,0,0,1-.907,1.082Zm-.393-6.912a.98.98,0,0,1-1.063-.845,1.014,1.014,0,0,1,.749-1.156l6.273-1.075a.948.948,0,0,1,.95.334,1.051,1.051,0,0,1,.162,1.033.979.979,0,0,1-.8.633L79.69,24.719Zm-1.508-6.307a.974.974,0,0,1-1.258-.59,1.057,1.057,0,0,1,.021-.78.991.991,0,0,1,.544-.534l6.388-2.545a.962.962,0,0,1,1.265.575,1.034,1.034,0,0,1-.55,1.321L78.2,18.412ZM65.514,28.078A26.681,26.681,0,0,0,68.036,32a14.163,14.163,0,0,0,2.737,2.717h.243l.222-.045a1.344,1.344,0,0,0,.229-.119,2.555,2.555,0,0,0,.472-.821,5.505,5.505,0,0,0,.286-1.261,16.707,16.707,0,0,0-.364-5.113,42.542,42.542,0,0,0-2-6.718,46.948,46.948,0,0,0-2.937-6.322,21.756,21.756,0,0,0-3.1-4.352,6.58,6.58,0,0,0-1.086-.918c-.715-.448-.922-.612-1.35-.052v.037a9.976,9.976,0,0,0-.379,4.4,34.539,34.539,0,0,0,1.243,6.427,4.212,4.212,0,0,1,3.93.634,4.075,4.075,0,0,1,1.2,1.694,4.979,4.979,0,0,1,.307,2.112,4.925,4.925,0,0,1-2.144,3.822Z" transform="translate(7.04 7.01)" fill="#fff" stroke="rgba(249,149,37,0.68)" stroke-width="2" fill-rule="evenodd"/>
  </g>
</svg>
