<svg xmlns="http://www.w3.org/2000/svg" xmlns:xlink="http://www.w3.org/1999/xlink" width="129.919" height="116.866" viewBox="0 0 129.919 116.866">
  <defs>
    <filter id="Tracé_3227" x="0" y="25.096" width="64.613" height="91.771" filterUnits="userSpaceOnUse">
      <feOffset dx="3" dy="3"/>
      <feGaussianBlur stdDeviation="3" result="blur"/>
      <feFlood/>
      <feComposite operator="in" in2="blur"/>
      <feComposite in="SourceGraphic"/>
    </filter>
    <filter id="Tracé_3228" x="47.196" y="0" width="82.723" height="92.087" filterUnits="userSpaceOnUse">
      <feOffset dx="3" dy="3"/>
      <feGaussianBlur stdDeviation="3" result="blur-2"/>
      <feFlood/>
      <feComposite operator="in" in2="blur-2"/>
      <feComposite in="SourceGraphic"/>
    </filter>
    <filter id="Bla_" x="63.664" y="24.001" width="47" height="27" filterUnits="userSpaceOnUse">
      <feOffset dx="1" dy="1"/>
      <feGaussianBlur stdDeviation="0.5" result="blur-3"/>
      <feFlood/>
      <feComposite operator="in" in2="blur-3"/>
      <feComposite in="SourceGraphic"/>
    </filter>
  </defs>
  <g id="Groupe_1326" transform="translate(-6410.434 -4268.499)">
    <path id="Polygone_1" d="M7.5,0,15,18H0Z" transform="translate(6489.227 4347.362) rotate(-140)" fill="#fff"/>
    <rect id="Rectangle_108" width="52" height="50" rx="4" transform="matrix(0.985, 0.174, -0.174, 0.985, 6474.786, 4277.148)" fill="#fff"/>
    <g id="Groupe_1325" transform="translate(-26.402 80)">
      <g id="hand-finger-up" transform="translate(6443.404 4220.071)">
        <g transform="matrix(1, 0, 0, 1, -6.57, -31.57)" filter="url(#Tracé_3227)">
          <path id="Tracé_3227-2" d="M17.161,46.876a7.724,7.724,0,0,1-.043,2.831c-.761,3.773-4.064,6.071-7.463,5.022a6.792,6.792,0,0,1-3.018-1.978,22.4,22.4,0,0,0,2.611,6.337,20.84,20.84,0,0,0,9.007,8.73,15.286,15.286,0,0,0,15.537-1.362,19.473,19.473,0,0,0,6.814-9.079,29.776,29.776,0,0,0,1.667-8.09,42.108,42.108,0,0,0-.284-9.417,7.222,7.222,0,0,0-1.41-3.524,3.948,3.948,0,0,0-2.536-1.421c-3.855-.575-7.924,0-11.816-.308-1.694-.136-2.938-.231-3.136,1.718a6.632,6.632,0,0,0,.07,1.949,5.188,5.188,0,0,0,1.882,3.1,7.225,7.225,0,0,0,3.646,1.475,8.073,8.073,0,0,0,2.723-.124A1.553,1.553,0,0,1,33.319,43.9c1.1,4.075-7.12.681-7.313,8.268-.005.219-.011.438-.016.58a1.634,1.634,0,0,1-1.608,1.67,1.659,1.659,0,0,1-1.512-1.777c.005-.255.011-.415.016-.563.086-3.334.129-5.1,2.354-6.663a9.82,9.82,0,0,1-2.037-1.25,6.689,6.689,0,0,1-.708-.657,6.351,6.351,0,0,1-1.807,2.227c-.07.053-.134.1-.2.148a5.274,5.274,0,0,1-3.324.989Zm-13.95.456L1.125,43.861a7.155,7.155,0,0,1-.113-7.528,6.757,6.757,0,0,1,1.8-1.984,5.9,5.9,0,0,1,2.375-1.06,5.193,5.193,0,0,1,1.094-.1,7.392,7.392,0,0,1,.075-2.15,6.777,6.777,0,0,1,2.45-4.187c.064-.053.134-.1.2-.148a5.308,5.308,0,0,1,4.578-.782,6.073,6.073,0,0,1,.97.367,8.4,8.4,0,0,1,.059-3.548,6.826,6.826,0,0,1,3.034-4.353,5.727,5.727,0,0,1,4.986-.48,7.136,7.136,0,0,1,3.9,3.613c1.823,3.684,2.016,4.175,2.209,4.673.145.367.284.734,1.356,2.92l.021-21.636h0a8.057,8.057,0,0,1,1.86-5.23,5.835,5.835,0,0,1,9.173.006,8.066,8.066,0,0,1,1.85,5.236h0l-.021,25.248H43a1.87,1.87,0,0,1-.327,1.06c.075.083.145.166.214.249a10.742,10.742,0,0,1,2.193,5.277,45.581,45.581,0,0,1,.306,10.282,33.789,33.789,0,0,1-1.9,9.127A22.855,22.855,0,0,1,35.464,69.37,18.114,18.114,0,0,1,17.027,71,24.042,24.042,0,0,1,6.615,60.948c-2.6-4.5-3.04-7-3.9-11.881l-.016-.1a1.85,1.85,0,0,1,.515-1.635Zm9.682-2.547A7.936,7.936,0,0,1,12,43.63L7.859,37.08A2.712,2.712,0,0,0,5.7,36.553a3.122,3.122,0,0,0-1.238.557,3.6,3.6,0,0,0-.847,4.934l4.611,7.67a4.083,4.083,0,0,0,2.22,1.842A2.982,2.982,0,0,0,14.2,49a4,4,0,0,0-.391-2.683c-.038-.065-.059-.107-.075-.13l-.836-1.4Zm-1.271-8.1,3.571,5.94a3.585,3.585,0,0,0,1.458.835,2.6,2.6,0,0,0,2.236-.355l.1-.071a3.438,3.438,0,0,0,1.222-2.12,3.829,3.829,0,0,0-.424-2.582c-.027-.041-.048-.083-.075-.124l-4.659-7.368a3.908,3.908,0,0,0-2.193-1.724,2.592,2.592,0,0,0-2.236.355c-.032.024-.064.047-.1.071A3.454,3.454,0,0,0,9.3,31.666a3.829,3.829,0,0,0,.424,2.582c.027.041.048.083.075.124l.2.314a8.536,8.536,0,0,1,1.63,2ZM21.675,21.177a2.9,2.9,0,0,0-2.525.219,3.418,3.418,0,0,0-1.507,2.191,4.808,4.808,0,0,0,.348,3.115l2.788,5.9a6.78,6.78,0,0,1,1.989-1.954,7.943,7.943,0,0,1,3.983-1.173c-.617-1.285-.745-1.617-.874-1.949-.172-.438-.338-.871-2.075-4.377a3.868,3.868,0,0,0-2.128-1.978ZM34.263,4.6a4.443,4.443,0,0,0-1.019,2.867h0l-.021,23.525L39.871,31l.021-23.525h0A4.452,4.452,0,0,0,38.884,4.6a2.913,2.913,0,0,0-4.621,0Z" transform="translate(6.57 31.57)" fill="#fff" stroke="rgba(249,149,37,0.68)" stroke-width="1"/>
        </g>
      </g>
      <g id="introduction" transform="translate(6419 4195.008)">
        <g transform="matrix(1, 0, 0, 1, 17.84, -6.51)" filter="url(#Tracé_3228)">
          <path id="Tracé_3228-2" d="M112.663,7.616,91.044,4.492a9.284,9.284,0,0,0-3.984.243,10.031,10.031,0,0,0-3.525,1.92A10.951,10.951,0,0,0,80.9,9.847a11.866,11.866,0,0,0-1.253,4.124l-2.8,23c-.186,1.542-1.725,6.518-1.39,7.856a11.475,11.475,0,0,0,1.775,3.84,10.5,10.5,0,0,0,2.954,2.867,9.554,9.554,0,0,0,3.76,1.352l9.283,1.339a2.162,2.162,0,0,1,1.713,2.448,2.967,2.967,0,0,1-.2.717c-.521,1.366-1.08,2.731-1.688,4.03-.633,1.379-1.291,2.677-2,3.921-.36.636-.757,1.244-1.191,1.866A36.231,36.231,0,0,0,95.6,64.815a35.206,35.206,0,0,0,10.077-7.87,1.882,1.882,0,0,1,1.688-.622l7.98,1.149a9.183,9.183,0,0,0,3.959-.243,10.349,10.349,0,0,0,3.549-1.92,10.951,10.951,0,0,0,2.631-3.191,11.866,11.866,0,0,0,1.253-4.124l4.406-26.517a11.948,11.948,0,0,0-.223-4.341,11.564,11.564,0,0,0-1.762-3.84,10.523,10.523,0,0,0-2.941-2.867,9.9,9.9,0,0,0-3.785-1.366l-9.792-1.42.025-.027ZM101.37,1.6l21.619,3.11A13.716,13.716,0,0,1,128.214,6.6a14.2,14.2,0,0,1,4.12,4,15.957,15.957,0,0,1,2.47,5.382,16.946,16.946,0,0,1,.323,6l-4.418,26.517a16.44,16.44,0,0,1-1.737,5.693,14.625,14.625,0,0,1-3.674,4.489,14.121,14.121,0,0,1-4.939,2.691,12.935,12.935,0,0,1-5.51.352l-7-1.014a42.143,42.143,0,0,1-4.53,4.165,37.33,37.33,0,0,1-5.957,3.827,39.483,39.483,0,0,1-6.627,2.745,45.3,45.3,0,0,1-7.26,1.6,1.928,1.928,0,0,1-1.9-.933,2.306,2.306,0,0,1,.534-3.029,21.67,21.67,0,0,0,3.3-2.921,16.773,16.773,0,0,0,2.259-3.11V63.03c.658-1.163,1.278-2.366,1.837-3.583.186-.433.385-.879.583-1.325l-6.677-.96a13.3,13.3,0,0,1-5.225-1.907,14.047,14.047,0,0,1-4.12-4A15.957,15.957,0,0,1,71.6,45.87c-.459-1.92,1.055-7.451,1.291-9.506l2.817-23A16.806,16.806,0,0,1,77.442,7.67a14.469,14.469,0,0,1,3.674-4.489A13.7,13.7,0,0,1,86.055.49a12.89,12.89,0,0,1,5.5-.352l9.78,1.42.037.041Z" transform="translate(-17.84 6.51)" fill="#fff" stroke="rgba(249,149,37,0.68)" stroke-width="1" fill-rule="evenodd"/>
        </g>
      </g>
      <g transform="matrix(1, 0, 0, 1, 6436.84, 4188.5)" filter="url(#Bla_)">
        <text id="Bla_2" transform="translate(65.16 44.5)" fill="#fff" stroke="rgba(0,0,0,0.6)" stroke-width="1" font-size="18" font-family="NuevoLithoPro"><tspan x="0" y="0">Bla</tspan><tspan y="0" xml:space="preserve" font-size="22"> !</tspan></text>
      </g>
    </g>
  </g>
</svg>
