<svg width="589" height="602" viewBox="0 0 89 102" fill="none" xmlns="http://www.w3.org/2000/svg">
<g clip-path="url(#clip0_2_9)" filter="url(#filter0_d_2_9)">
<g filter="url(#filter1_d_2_9)">
<path d="M80.7877 39.6421L17.9286 5.09285C12.8212 2.28699 5 5.00924 5 11.949V81.031C4.9986 82.4368 5.39758 83.8178 6.15638 85.0338C6.91519 86.2497 8.00676 87.2572 9.32014 87.9538C10.6335 88.6504 12.1219 89.0113 13.6339 88.9997C15.1459 88.9882 16.6277 88.6047 17.9286 87.8881L80.7877 53.3554C82.0707 52.6519 83.134 51.6493 83.8727 50.4469C84.6115 49.2444 85 47.8835 85 46.4988C85 45.114 84.6115 43.7531 83.8727 42.5507C83.134 41.3482 82.0707 40.3456 80.7877 39.6421V39.6421Z" fill="#DA0E20"/>
</g>
<path d="M22.3427 44.0404C22.3427 43.7604 22.2925 43.496 22.1922 43.2315C21.4225 41.2249 19.4983 40.276 17.2897 40.276H13.1569C13.274 42.1582 13.2907 44.056 13.2907 45.9382C13.2907 48.1783 13.2405 50.4183 13.1067 52.6583L15.1982 52.9539C15.4993 53.0005 15.8173 53.0628 16.1184 53.0783L16.2188 49.6094C16.5033 49.5938 16.771 49.5783 17.0554 49.5472C17.5908 49.5005 18.2601 49.1427 18.6952 48.8627C20.2512 47.9138 22.3427 45.8916 22.3427 44.0404ZM16.0515 42.236L17.0554 42.3449C18.0091 42.4538 18.9963 42.5315 19.4648 43.4338C19.5652 43.636 19.6154 43.8538 19.6154 44.0871C19.6154 45.1916 18.4609 46.4827 17.5407 47.1049C17.3566 47.2294 17.022 47.4316 16.7877 47.4316C16.7375 47.4005 16.5869 47.4005 16.5367 47.4005C16.4029 47.4005 16.2523 47.416 16.1184 47.4316C16.1854 46.8405 16.2021 46.2493 16.2021 45.6738C16.2021 44.5227 16.1519 43.3715 16.0515 42.236Z" fill="white"/>
<path d="M26.3027 39.8871L23.8431 39.2648L23.5587 52.565L26.0685 53.1872L26.3027 39.8871Z" fill="white"/>
<path d="M35.6101 44.9738L33.2341 44.7093L33.301 45.6738C32.7322 45.0516 31.8788 44.7249 31.0088 44.7249C28.6495 44.7249 27.2775 46.7316 27.2775 48.7538C27.2775 50.8072 28.6328 52.8605 31.0422 52.8605C31.8788 52.8605 32.7489 52.5339 33.2676 51.8961H33.301V52.6583L35.677 52.8761C35.4595 51.7872 35.4762 50.6049 35.4762 49.5005C35.4762 47.9916 35.5264 46.4827 35.6101 44.9738ZM31.5776 50.9316C30.3729 50.9316 29.6367 49.8116 29.6367 48.7849C29.6367 47.7583 30.3729 46.6538 31.5776 46.6538C32.7824 46.6538 33.5353 47.7427 33.5353 48.7849C33.5353 49.8116 32.7991 50.9316 31.5776 50.9316Z" fill="white"/>
<path d="M40.168 51.4294L37.9593 54.0428L40.6532 54.8828L45.9573 45.7516L43.3471 44.616L41.4563 48.8472L39.1139 44.5071L36.671 45.3938L40.168 51.4294Z" fill="white"/>
<path d="M46.8306 46.7316V48.5205H50.9132V46.7316H46.8306Z" fill="white"/>
<path d="M52.3535 40.0115C52.5375 42.236 52.571 44.476 52.571 46.716C52.571 48.676 52.5208 50.6516 52.4204 52.6116C53.0897 52.705 53.759 52.7827 54.4115 52.8916C54.7294 52.9383 55.131 52.9694 55.4322 53.0783C55.3485 52.425 55.315 51.7405 55.2983 51.0872C55.2481 49.9672 55.2314 48.8627 55.2314 47.7427C55.2314 45.2849 55.315 42.8271 55.4322 40.3693L53.2905 40.1204C52.9893 40.0737 52.6714 40.0271 52.3535 40.0115Z" fill="white"/>
<path d="M56.3099 40.4782L56.5776 42.5471L60.0914 42.5004L59.7567 52.7205L63.0529 53.3428L62.8856 42.5004L67.0184 42.5471L67.6208 40.1204L56.3099 40.4782Z" fill="white"/>
</g>
<defs>
<filter id="filter0_d_2_9" x="-4" y="0" width="97" height="110" filterUnits="userSpaceOnUse" color-interpolation-filters="sRGB">
<feFlood flood-opacity="0" result="BackgroundImageFix"/>
<feColorMatrix in="SourceAlpha" type="matrix" values="0 0 0 0 0 0 0 0 0 0 0 0 0 0 0 0 0 0 127 0" result="hardAlpha"/>
<feOffset dy="4"/>
<feGaussianBlur stdDeviation="2"/>
<feComposite in2="hardAlpha" operator="out"/>
<feColorMatrix type="matrix" values="0 0 0 0 0 0 0 0 0 0 0 0 0 0 0 0 0 0 0.25 0"/>
<feBlend mode="normal" in2="BackgroundImageFix" result="effect1_dropShadow_2_9"/>
<feBlend mode="normal" in="SourceGraphic" in2="effect1_dropShadow_2_9" result="shape"/>
</filter>
<filter id="filter1_d_2_9" x="-1" y="4.00229" width="92" height="100.998" filterUnits="userSpaceOnUse" color-interpolation-filters="sRGB">
<feFlood flood-opacity="0" result="BackgroundImageFix"/>
<feColorMatrix in="SourceAlpha" type="matrix" values="0 0 0 0 0 0 0 0 0 0 0 0 0 0 0 0 0 0 127 0" result="hardAlpha"/>
<feOffset dy="10"/>
<feGaussianBlur stdDeviation="3"/>
<feColorMatrix type="matrix" values="0 0 0 0 0 0 0 0 0 0 0 0 0 0 0 0 0 0 0.161 0"/>
<feBlend mode="normal" in2="BackgroundImageFix" result="effect1_dropShadow_2_9"/>
<feBlend mode="normal" in="SourceGraphic" in2="effect1_dropShadow_2_9" result="shape"/>
</filter>
<clipPath id="clip0_2_9">
<rect width="589" height="602" fill="white"/>
</clipPath>
</defs>
</svg>
